<mxfile host="app.diagrams.net" modified="2023-04-26T10:00:20.262Z" agent="Mozilla/5.0 (Windows NT 10.0; Win64; x64) AppleWebKit/537.36 (KHTML, like Gecko) Chrome/112.0.0.0 Safari/537.36" etag="dOutQNpJu0lDIWYXd476" version="21.1.5" type="device">
  <diagram name="Pagina-1" id="3ugXi8HPrmLtZIMu-OMr">
    <mxGraphModel dx="1434" dy="916" grid="1" gridSize="10" guides="1" tooltips="1" connect="1" arrows="1" fold="1" page="1" pageScale="1" pageWidth="1169" pageHeight="827" math="0" shadow="0">
      <root>
        <mxCell id="0" />
        <mxCell id="1" parent="0" />
        <mxCell id="XWtVXZTuNJ7dEPPLJhnu-2" value="" style="rounded=1;whiteSpace=wrap;html=1;strokeColor=#10ed0c;strokeWidth=4;" vertex="1" parent="1">
          <mxGeometry x="150" y="430" width="370" height="260" as="geometry" />
        </mxCell>
        <mxCell id="XWtVXZTuNJ7dEPPLJhnu-3" value="&lt;b&gt;&lt;font style=&quot;font-size: 20px;&quot;&gt;Data layer&lt;/font&gt;&lt;/b&gt;" style="text;html=1;align=center;verticalAlign=middle;resizable=0;points=[];autosize=1;strokeColor=none;fillColor=none;" vertex="1" parent="1">
          <mxGeometry x="20" y="510" width="120" height="40" as="geometry" />
        </mxCell>
        <mxCell id="XWtVXZTuNJ7dEPPLJhnu-47" style="edgeStyle=orthogonalEdgeStyle;rounded=0;orthogonalLoop=1;jettySize=auto;html=1;exitX=0.75;exitY=1;exitDx=0;exitDy=0;entryX=0.778;entryY=-0.018;entryDx=0;entryDy=0;entryPerimeter=0;" edge="1" parent="1" source="XWtVXZTuNJ7dEPPLJhnu-5" target="XWtVXZTuNJ7dEPPLJhnu-7">
          <mxGeometry relative="1" as="geometry" />
        </mxCell>
        <mxCell id="XWtVXZTuNJ7dEPPLJhnu-5" value="&lt;b&gt;LocalDataSource&lt;/b&gt;" style="rounded=1;whiteSpace=wrap;html=1;fillColor=#10ed0c;strokeColor=none;" vertex="1" parent="1">
          <mxGeometry x="200" y="620" width="140" height="40" as="geometry" />
        </mxCell>
        <mxCell id="XWtVXZTuNJ7dEPPLJhnu-44" style="edgeStyle=orthogonalEdgeStyle;rounded=0;orthogonalLoop=1;jettySize=auto;html=1;exitX=0.75;exitY=1;exitDx=0;exitDy=0;entryX=0.749;entryY=-0.014;entryDx=0;entryDy=0;entryPerimeter=0;" edge="1" parent="1" source="XWtVXZTuNJ7dEPPLJhnu-6" target="XWtVXZTuNJ7dEPPLJhnu-17">
          <mxGeometry relative="1" as="geometry" />
        </mxCell>
        <mxCell id="XWtVXZTuNJ7dEPPLJhnu-56" style="edgeStyle=orthogonalEdgeStyle;rounded=0;orthogonalLoop=1;jettySize=auto;html=1;exitX=0.25;exitY=0;exitDx=0;exitDy=0;entryX=0.726;entryY=1.014;entryDx=0;entryDy=0;entryPerimeter=0;" edge="1" parent="1" source="XWtVXZTuNJ7dEPPLJhnu-6" target="XWtVXZTuNJ7dEPPLJhnu-22">
          <mxGeometry relative="1" as="geometry" />
        </mxCell>
        <mxCell id="XWtVXZTuNJ7dEPPLJhnu-6" value="&lt;b&gt;NetworkDataSource&lt;/b&gt;" style="rounded=1;whiteSpace=wrap;html=1;fillColor=#10ed0c;strokeColor=none;" vertex="1" parent="1">
          <mxGeometry x="360" y="620" width="140" height="40" as="geometry" />
        </mxCell>
        <mxCell id="XWtVXZTuNJ7dEPPLJhnu-13" value="" style="group" vertex="1" connectable="0" parent="1">
          <mxGeometry x="200" y="710" width="135" height="100" as="geometry" />
        </mxCell>
        <mxCell id="XWtVXZTuNJ7dEPPLJhnu-7" value="" style="rounded=1;whiteSpace=wrap;html=1;fillColor=#f5f5f5;fontColor=#333333;strokeColor=#666666;" vertex="1" parent="XWtVXZTuNJ7dEPPLJhnu-13">
          <mxGeometry width="135" height="100" as="geometry" />
        </mxCell>
        <mxCell id="XWtVXZTuNJ7dEPPLJhnu-8" value="&lt;b&gt;Android SQLite&lt;/b&gt;" style="shape=cylinder3;whiteSpace=wrap;html=1;boundedLbl=1;backgroundOutline=1;size=15;fillColor=#e1d5e7;strokeColor=#9673a6;" vertex="1" parent="XWtVXZTuNJ7dEPPLJhnu-13">
          <mxGeometry x="70" y="14" width="50" height="80" as="geometry" />
        </mxCell>
        <mxCell id="XWtVXZTuNJ7dEPPLJhnu-12" value="&lt;b&gt;ROOM&lt;/b&gt;" style="text;html=1;align=center;verticalAlign=middle;resizable=0;points=[];autosize=1;strokeColor=none;fillColor=none;" vertex="1" parent="XWtVXZTuNJ7dEPPLJhnu-13">
          <mxGeometry y="10" width="60" height="30" as="geometry" />
        </mxCell>
        <mxCell id="XWtVXZTuNJ7dEPPLJhnu-16" value="" style="group" vertex="1" connectable="0" parent="1">
          <mxGeometry x="360" y="710" width="140" height="100" as="geometry" />
        </mxCell>
        <mxCell id="XWtVXZTuNJ7dEPPLJhnu-17" value="" style="rounded=1;whiteSpace=wrap;html=1;fillColor=#f5f5f5;fontColor=#333333;strokeColor=#666666;" vertex="1" parent="XWtVXZTuNJ7dEPPLJhnu-16">
          <mxGeometry width="140.00000000000003" height="100" as="geometry" />
        </mxCell>
        <mxCell id="XWtVXZTuNJ7dEPPLJhnu-18" value="&lt;b&gt;Postgres&lt;br&gt;SQL&lt;br&gt;&lt;/b&gt;" style="shape=cylinder3;whiteSpace=wrap;html=1;boundedLbl=1;backgroundOutline=1;size=15;fillColor=#e1d5e7;strokeColor=#9673a6;" vertex="1" parent="XWtVXZTuNJ7dEPPLJhnu-16">
          <mxGeometry x="77.23673052362709" y="14" width="51.85185185185186" height="80" as="geometry" />
        </mxCell>
        <mxCell id="XWtVXZTuNJ7dEPPLJhnu-19" value="&lt;b&gt;RETROFIT&lt;br&gt;&lt;br&gt;Rest Api&lt;br&gt;&lt;/b&gt;" style="text;html=1;align=center;verticalAlign=middle;resizable=0;points=[];autosize=1;strokeColor=none;fillColor=none;" vertex="1" parent="XWtVXZTuNJ7dEPPLJhnu-16">
          <mxGeometry y="10" width="80" height="60" as="geometry" />
        </mxCell>
        <mxCell id="XWtVXZTuNJ7dEPPLJhnu-55" style="edgeStyle=orthogonalEdgeStyle;rounded=0;orthogonalLoop=1;jettySize=auto;html=1;exitX=0.25;exitY=1;exitDx=0;exitDy=0;" edge="1" parent="1" source="XWtVXZTuNJ7dEPPLJhnu-22">
          <mxGeometry relative="1" as="geometry">
            <mxPoint x="300" y="620" as="targetPoint" />
          </mxGeometry>
        </mxCell>
        <mxCell id="XWtVXZTuNJ7dEPPLJhnu-57" style="edgeStyle=orthogonalEdgeStyle;rounded=0;orthogonalLoop=1;jettySize=auto;html=1;exitX=0.891;exitY=1.012;exitDx=0;exitDy=0;entryX=0.485;entryY=-0.004;entryDx=0;entryDy=0;entryPerimeter=0;exitPerimeter=0;" edge="1" parent="1" source="XWtVXZTuNJ7dEPPLJhnu-22" target="XWtVXZTuNJ7dEPPLJhnu-6">
          <mxGeometry relative="1" as="geometry">
            <Array as="points">
              <mxPoint x="428" y="595" />
              <mxPoint x="428" y="595" />
              <mxPoint x="428" y="620" />
            </Array>
          </mxGeometry>
        </mxCell>
        <mxCell id="XWtVXZTuNJ7dEPPLJhnu-22" value="" style="rounded=1;whiteSpace=wrap;html=1;strokeColor=#10ed0c;strokeWidth=4;" vertex="1" parent="1">
          <mxGeometry x="250" y="460" width="200" height="110" as="geometry" />
        </mxCell>
        <mxCell id="XWtVXZTuNJ7dEPPLJhnu-20" value="&lt;b&gt;QuotesRepository&lt;/b&gt;" style="rounded=1;whiteSpace=wrap;html=1;fillColor=#10ed0c;strokeColor=none;" vertex="1" parent="1">
          <mxGeometry x="270" y="470" width="160" height="40" as="geometry" />
        </mxCell>
        <mxCell id="XWtVXZTuNJ7dEPPLJhnu-21" value="&lt;b&gt;ProfileRepository&lt;/b&gt;" style="rounded=1;whiteSpace=wrap;html=1;fillColor=#10ed0c;strokeColor=none;" vertex="1" parent="1">
          <mxGeometry x="270" y="520" width="160" height="40" as="geometry" />
        </mxCell>
        <mxCell id="XWtVXZTuNJ7dEPPLJhnu-24" value="" style="rounded=1;whiteSpace=wrap;html=1;strokeColor=#82FBFF;strokeWidth=4;" vertex="1" parent="1">
          <mxGeometry x="150" y="202.5" width="370" height="200" as="geometry" />
        </mxCell>
        <mxCell id="XWtVXZTuNJ7dEPPLJhnu-25" value="&lt;b&gt;&lt;font style=&quot;font-size: 20px;&quot;&gt;UI layer&lt;/font&gt;&lt;/b&gt;" style="text;html=1;align=center;verticalAlign=middle;resizable=0;points=[];autosize=1;strokeColor=none;fillColor=none;" vertex="1" parent="1">
          <mxGeometry x="25" y="240" width="100" height="40" as="geometry" />
        </mxCell>
        <mxCell id="XWtVXZTuNJ7dEPPLJhnu-32" value="" style="group" vertex="1" connectable="0" parent="1">
          <mxGeometry x="185" y="310" width="140" height="60" as="geometry" />
        </mxCell>
        <mxCell id="XWtVXZTuNJ7dEPPLJhnu-26" value="" style="rounded=1;whiteSpace=wrap;html=1;fillColor=#82fbff;strokeColor=none;" vertex="1" parent="XWtVXZTuNJ7dEPPLJhnu-32">
          <mxGeometry width="140" height="60" as="geometry" />
        </mxCell>
        <mxCell id="XWtVXZTuNJ7dEPPLJhnu-28" value="&lt;b&gt;TheListViewModel&lt;/b&gt;" style="text;html=1;align=center;verticalAlign=middle;resizable=0;points=[];autosize=1;strokeColor=none;fillColor=none;" vertex="1" parent="XWtVXZTuNJ7dEPPLJhnu-32">
          <mxGeometry x="5" width="130" height="30" as="geometry" />
        </mxCell>
        <mxCell id="XWtVXZTuNJ7dEPPLJhnu-30" value="TheListUiState" style="rounded=1;whiteSpace=wrap;html=1;glass=0;perimeter=ellipsePerimeter;fillColor=#3d9899;" vertex="1" parent="XWtVXZTuNJ7dEPPLJhnu-32">
          <mxGeometry x="20" y="30" width="100" height="20" as="geometry" />
        </mxCell>
        <mxCell id="XWtVXZTuNJ7dEPPLJhnu-33" value="" style="group" vertex="1" connectable="0" parent="1">
          <mxGeometry x="345" y="310" width="140" height="60" as="geometry" />
        </mxCell>
        <mxCell id="XWtVXZTuNJ7dEPPLJhnu-62" style="edgeStyle=orthogonalEdgeStyle;rounded=0;orthogonalLoop=1;jettySize=auto;html=1;exitX=0.25;exitY=1;exitDx=0;exitDy=0;endArrow=none;endFill=0;dashed=1;" edge="1" parent="XWtVXZTuNJ7dEPPLJhnu-33" source="XWtVXZTuNJ7dEPPLJhnu-34">
          <mxGeometry relative="1" as="geometry">
            <mxPoint x="5" y="80" as="targetPoint" />
            <Array as="points">
              <mxPoint x="35" y="80" />
            </Array>
          </mxGeometry>
        </mxCell>
        <mxCell id="XWtVXZTuNJ7dEPPLJhnu-34" value="" style="rounded=1;whiteSpace=wrap;html=1;fillColor=#82fbff;strokeColor=none;" vertex="1" parent="XWtVXZTuNJ7dEPPLJhnu-33">
          <mxGeometry width="140" height="60" as="geometry" />
        </mxCell>
        <mxCell id="XWtVXZTuNJ7dEPPLJhnu-35" value="&lt;b&gt;MyListViewModel&lt;/b&gt;" style="text;html=1;align=center;verticalAlign=middle;resizable=0;points=[];autosize=1;strokeColor=none;fillColor=none;" vertex="1" parent="XWtVXZTuNJ7dEPPLJhnu-33">
          <mxGeometry x="10" width="120" height="30" as="geometry" />
        </mxCell>
        <mxCell id="XWtVXZTuNJ7dEPPLJhnu-36" value="MyListUiState" style="rounded=1;whiteSpace=wrap;html=1;glass=0;perimeter=ellipsePerimeter;fillColor=#3d9899;" vertex="1" parent="XWtVXZTuNJ7dEPPLJhnu-33">
          <mxGeometry x="20" y="30" width="100" height="20" as="geometry" />
        </mxCell>
        <mxCell id="XWtVXZTuNJ7dEPPLJhnu-45" style="edgeStyle=orthogonalEdgeStyle;rounded=0;orthogonalLoop=1;jettySize=auto;html=1;exitX=0.25;exitY=0;exitDx=0;exitDy=0;entryX=0.25;entryY=1.057;entryDx=0;entryDy=0;entryPerimeter=0;" edge="1" parent="1" source="XWtVXZTuNJ7dEPPLJhnu-17" target="XWtVXZTuNJ7dEPPLJhnu-6">
          <mxGeometry relative="1" as="geometry" />
        </mxCell>
        <mxCell id="XWtVXZTuNJ7dEPPLJhnu-46" style="edgeStyle=orthogonalEdgeStyle;rounded=0;orthogonalLoop=1;jettySize=auto;html=1;exitX=0.25;exitY=0;exitDx=0;exitDy=0;entryX=0.237;entryY=1.032;entryDx=0;entryDy=0;entryPerimeter=0;" edge="1" parent="1" source="XWtVXZTuNJ7dEPPLJhnu-7" target="XWtVXZTuNJ7dEPPLJhnu-5">
          <mxGeometry relative="1" as="geometry" />
        </mxCell>
        <mxCell id="XWtVXZTuNJ7dEPPLJhnu-48" value="&lt;b&gt;&lt;font style=&quot;font-size: 11px;&quot;&gt;Access&lt;br&gt;interface&lt;/font&gt;&lt;/b&gt;" style="text;html=1;align=center;verticalAlign=middle;resizable=0;points=[];autosize=1;strokeColor=none;fillColor=none;" vertex="1" parent="1">
          <mxGeometry x="180" y="495" width="70" height="40" as="geometry" />
        </mxCell>
        <mxCell id="XWtVXZTuNJ7dEPPLJhnu-53" style="edgeStyle=orthogonalEdgeStyle;rounded=0;orthogonalLoop=1;jettySize=auto;html=1;entryX=0.097;entryY=1.011;entryDx=0;entryDy=0;entryPerimeter=0;" edge="1" parent="1" source="XWtVXZTuNJ7dEPPLJhnu-5" target="XWtVXZTuNJ7dEPPLJhnu-22">
          <mxGeometry relative="1" as="geometry" />
        </mxCell>
        <mxCell id="XWtVXZTuNJ7dEPPLJhnu-58" style="edgeStyle=orthogonalEdgeStyle;rounded=0;orthogonalLoop=1;jettySize=auto;html=1;exitX=0.37;exitY=-0.002;exitDx=0;exitDy=0;exitPerimeter=0;" edge="1" parent="1" source="XWtVXZTuNJ7dEPPLJhnu-22">
          <mxGeometry relative="1" as="geometry">
            <mxPoint x="324" y="390" as="targetPoint" />
            <Array as="points">
              <mxPoint x="324" y="401" />
            </Array>
          </mxGeometry>
        </mxCell>
        <mxCell id="XWtVXZTuNJ7dEPPLJhnu-61" style="edgeStyle=orthogonalEdgeStyle;rounded=0;orthogonalLoop=1;jettySize=auto;html=1;exitX=0.75;exitY=1;exitDx=0;exitDy=0;entryX=0.541;entryY=0.995;entryDx=0;entryDy=0;entryPerimeter=0;dashed=1;strokeColor=default;endArrow=none;endFill=0;" edge="1" parent="1" source="XWtVXZTuNJ7dEPPLJhnu-26" target="XWtVXZTuNJ7dEPPLJhnu-24">
          <mxGeometry relative="1" as="geometry">
            <Array as="points">
              <mxPoint x="290" y="390" />
              <mxPoint x="350" y="390" />
              <mxPoint x="350" y="399" />
            </Array>
          </mxGeometry>
        </mxCell>
        <mxCell id="XWtVXZTuNJ7dEPPLJhnu-60" style="edgeStyle=orthogonalEdgeStyle;rounded=0;orthogonalLoop=1;jettySize=auto;html=1;exitX=0.54;exitY=1.006;exitDx=0;exitDy=0;exitPerimeter=0;" edge="1" parent="1" source="XWtVXZTuNJ7dEPPLJhnu-24" target="XWtVXZTuNJ7dEPPLJhnu-22">
          <mxGeometry relative="1" as="geometry">
            <mxPoint x="352" y="460" as="targetPoint" />
            <Array as="points">
              <mxPoint x="350" y="403" />
              <mxPoint x="350" y="403" />
            </Array>
          </mxGeometry>
        </mxCell>
        <mxCell id="XWtVXZTuNJ7dEPPLJhnu-68" style="edgeStyle=orthogonalEdgeStyle;rounded=0;orthogonalLoop=1;jettySize=auto;html=1;exitX=0.25;exitY=1;exitDx=0;exitDy=0;entryX=0.858;entryY=0.019;entryDx=0;entryDy=0;entryPerimeter=0;" edge="1" parent="1" target="XWtVXZTuNJ7dEPPLJhnu-28">
          <mxGeometry relative="1" as="geometry">
            <mxPoint x="301.25" y="290" as="sourcePoint" />
          </mxGeometry>
        </mxCell>
        <mxCell id="XWtVXZTuNJ7dEPPLJhnu-69" style="edgeStyle=orthogonalEdgeStyle;rounded=0;orthogonalLoop=1;jettySize=auto;html=1;exitX=0.75;exitY=1;exitDx=0;exitDy=0;entryX=0.078;entryY=0.001;entryDx=0;entryDy=0;entryPerimeter=0;" edge="1" parent="1" target="XWtVXZTuNJ7dEPPLJhnu-35">
          <mxGeometry relative="1" as="geometry">
            <mxPoint x="363.75" y="290" as="sourcePoint" />
          </mxGeometry>
        </mxCell>
        <mxCell id="XWtVXZTuNJ7dEPPLJhnu-74" value="&lt;font style=&quot;font-size: 10px;&quot;&gt;ui events&lt;/font&gt;" style="text;html=1;align=center;verticalAlign=middle;resizable=0;points=[];autosize=1;strokeColor=none;fillColor=none;" vertex="1" parent="1">
          <mxGeometry x="302.5" y="287.5" width="60" height="30" as="geometry" />
        </mxCell>
        <mxCell id="XWtVXZTuNJ7dEPPLJhnu-80" value="" style="group" vertex="1" connectable="0" parent="1">
          <mxGeometry x="260" y="230" width="140" height="60" as="geometry" />
        </mxCell>
        <mxCell id="XWtVXZTuNJ7dEPPLJhnu-81" value="" style="rounded=1;whiteSpace=wrap;html=1;fillColor=#82fbff;strokeColor=none;" vertex="1" parent="XWtVXZTuNJ7dEPPLJhnu-80">
          <mxGeometry width="140" height="60" as="geometry" />
        </mxCell>
        <mxCell id="XWtVXZTuNJ7dEPPLJhnu-82" value="&lt;b&gt;UI&lt;/b&gt;" style="text;html=1;align=center;verticalAlign=middle;resizable=0;points=[];autosize=1;strokeColor=none;fillColor=none;" vertex="1" parent="XWtVXZTuNJ7dEPPLJhnu-80">
          <mxGeometry x="50" width="40" height="30" as="geometry" />
        </mxCell>
        <mxCell id="XWtVXZTuNJ7dEPPLJhnu-83" value="UiState" style="rounded=1;whiteSpace=wrap;html=1;glass=0;perimeter=ellipsePerimeter;fillColor=#3d9899;" vertex="1" parent="XWtVXZTuNJ7dEPPLJhnu-80">
          <mxGeometry x="20" y="30" width="100" height="20" as="geometry" />
        </mxCell>
        <mxCell id="XWtVXZTuNJ7dEPPLJhnu-63" style="edgeStyle=orthogonalEdgeStyle;rounded=0;orthogonalLoop=1;jettySize=auto;html=1;entryX=0;entryY=0.5;entryDx=0;entryDy=0;" edge="1" parent="1" source="XWtVXZTuNJ7dEPPLJhnu-28" target="XWtVXZTuNJ7dEPPLJhnu-83">
          <mxGeometry relative="1" as="geometry">
            <mxPoint x="270" y="260" as="targetPoint" />
            <Array as="points">
              <mxPoint x="250" y="270" />
            </Array>
          </mxGeometry>
        </mxCell>
        <mxCell id="XWtVXZTuNJ7dEPPLJhnu-64" style="edgeStyle=orthogonalEdgeStyle;rounded=0;orthogonalLoop=1;jettySize=auto;html=1;entryX=1;entryY=0.5;entryDx=0;entryDy=0;" edge="1" parent="1" source="XWtVXZTuNJ7dEPPLJhnu-35" target="XWtVXZTuNJ7dEPPLJhnu-83">
          <mxGeometry relative="1" as="geometry">
            <mxPoint x="395" y="260" as="targetPoint" />
          </mxGeometry>
        </mxCell>
        <mxCell id="XWtVXZTuNJ7dEPPLJhnu-109" value="User&lt;br&gt;" style="shape=umlActor;verticalLabelPosition=bottom;verticalAlign=top;html=1;outlineConnect=0;" vertex="1" parent="1">
          <mxGeometry x="760" y="1025" width="30" height="60" as="geometry" />
        </mxCell>
        <mxCell id="XWtVXZTuNJ7dEPPLJhnu-110" value="Visualize the universal list" style="rounded=1;whiteSpace=wrap;html=1;" vertex="1" parent="1">
          <mxGeometry x="860" y="945" width="160" height="50" as="geometry" />
        </mxCell>
        <mxCell id="XWtVXZTuNJ7dEPPLJhnu-111" value="Visualize his own list" style="rounded=1;whiteSpace=wrap;html=1;" vertex="1" parent="1">
          <mxGeometry x="860" y="1035" width="160" height="50" as="geometry" />
        </mxCell>
        <mxCell id="XWtVXZTuNJ7dEPPLJhnu-112" value="Donate" style="rounded=1;whiteSpace=wrap;html=1;" vertex="1" parent="1">
          <mxGeometry x="860" y="1135" width="160" height="50" as="geometry" />
        </mxCell>
        <mxCell id="XWtVXZTuNJ7dEPPLJhnu-113" value="" style="endArrow=classic;html=1;rounded=0;entryX=0;entryY=0.5;entryDx=0;entryDy=0;" edge="1" parent="1" target="XWtVXZTuNJ7dEPPLJhnu-111">
          <mxGeometry width="50" height="50" relative="1" as="geometry">
            <mxPoint x="800" y="1060" as="sourcePoint" />
            <mxPoint x="990" y="1045" as="targetPoint" />
          </mxGeometry>
        </mxCell>
        <mxCell id="XWtVXZTuNJ7dEPPLJhnu-114" value="" style="endArrow=classic;html=1;rounded=0;entryX=0;entryY=0.5;entryDx=0;entryDy=0;" edge="1" parent="1" target="XWtVXZTuNJ7dEPPLJhnu-110">
          <mxGeometry width="50" height="50" relative="1" as="geometry">
            <mxPoint x="800" y="1045" as="sourcePoint" />
            <mxPoint x="860" y="1045" as="targetPoint" />
          </mxGeometry>
        </mxCell>
        <mxCell id="XWtVXZTuNJ7dEPPLJhnu-115" value="" style="endArrow=classic;html=1;rounded=0;entryX=0;entryY=0.5;entryDx=0;entryDy=0;" edge="1" parent="1" target="XWtVXZTuNJ7dEPPLJhnu-112">
          <mxGeometry width="50" height="50" relative="1" as="geometry">
            <mxPoint x="800" y="1085" as="sourcePoint" />
            <mxPoint x="860" y="1080" as="targetPoint" />
          </mxGeometry>
        </mxCell>
        <mxCell id="XWtVXZTuNJ7dEPPLJhnu-116" value="G" style="ellipse;whiteSpace=wrap;html=1;aspect=fixed;fillColor=#00CC00;strokeColor=#82B366;" vertex="1" parent="1">
          <mxGeometry x="760" y="730" width="80" height="80" as="geometry" />
        </mxCell>
        <mxCell id="XWtVXZTuNJ7dEPPLJhnu-117" value="R" style="ellipse;whiteSpace=wrap;html=1;aspect=fixed;strokeColor=#b85450;fillColor=#FF0000;" vertex="1" parent="1">
          <mxGeometry x="880" y="730" width="80" height="80" as="geometry" />
        </mxCell>
        <mxCell id="XWtVXZTuNJ7dEPPLJhnu-118" value="Regrets" style="text;html=1;align=center;verticalAlign=middle;resizable=0;points=[];autosize=1;strokeColor=none;fillColor=none;" vertex="1" parent="1">
          <mxGeometry x="890" y="810" width="70" height="30" as="geometry" />
        </mxCell>
        <mxCell id="XWtVXZTuNJ7dEPPLJhnu-119" value="Pathways" style="text;html=1;align=center;verticalAlign=middle;resizable=0;points=[];autosize=1;strokeColor=none;fillColor=none;" vertex="1" parent="1">
          <mxGeometry x="760" y="810" width="80" height="30" as="geometry" />
        </mxCell>
        <mxCell id="XWtVXZTuNJ7dEPPLJhnu-120" value="Quote" style="swimlane;fontStyle=0;childLayout=stackLayout;horizontal=1;startSize=30;horizontalStack=0;resizeParent=1;resizeParentMax=0;resizeLast=0;collapsible=1;marginBottom=0;whiteSpace=wrap;html=1;" vertex="1" parent="1">
          <mxGeometry x="760" y="1240" width="280" height="90" as="geometry" />
        </mxCell>
        <mxCell id="XWtVXZTuNJ7dEPPLJhnu-121" value="Can be a Regret (R) or Pathway (G)" style="text;strokeColor=none;fillColor=none;align=left;verticalAlign=middle;spacingLeft=4;spacingRight=4;overflow=hidden;points=[[0,0.5],[1,0.5]];portConstraint=eastwest;rotatable=0;whiteSpace=wrap;html=1;" vertex="1" parent="XWtVXZTuNJ7dEPPLJhnu-120">
          <mxGeometry y="30" width="280" height="30" as="geometry" />
        </mxCell>
        <mxCell id="XWtVXZTuNJ7dEPPLJhnu-122" value="Can have a customized font (optional)" style="text;strokeColor=none;fillColor=none;align=left;verticalAlign=middle;spacingLeft=4;spacingRight=4;overflow=hidden;points=[[0,0.5],[1,0.5]];portConstraint=eastwest;rotatable=0;whiteSpace=wrap;html=1;" vertex="1" parent="XWtVXZTuNJ7dEPPLJhnu-120">
          <mxGeometry y="60" width="280" height="30" as="geometry" />
        </mxCell>
        <mxCell id="XWtVXZTuNJ7dEPPLJhnu-123" value="" style="endArrow=classic;html=1;rounded=0;dashed=1;exitX=1;exitY=0.5;exitDx=0;exitDy=0;entryX=0;entryY=0.5;entryDx=0;entryDy=0;" edge="1" parent="1" source="XWtVXZTuNJ7dEPPLJhnu-110" target="XWtVXZTuNJ7dEPPLJhnu-124">
          <mxGeometry width="50" height="50" relative="1" as="geometry">
            <mxPoint x="910" y="1090" as="sourcePoint" />
            <mxPoint x="1080" y="970" as="targetPoint" />
          </mxGeometry>
        </mxCell>
        <mxCell id="XWtVXZTuNJ7dEPPLJhnu-124" value="&lt;span style=&quot;text-align: left;&quot;&gt;Mark quotes that match one&#39;s own experience&lt;/span&gt;" style="rounded=1;whiteSpace=wrap;html=1;" vertex="1" parent="1">
          <mxGeometry x="1080" y="900" width="170" height="50" as="geometry" />
        </mxCell>
        <mxCell id="XWtVXZTuNJ7dEPPLJhnu-125" value="" style="endArrow=classic;html=1;rounded=0;dashed=1;exitX=1;exitY=0.5;exitDx=0;exitDy=0;entryX=0;entryY=0.5;entryDx=0;entryDy=0;" edge="1" parent="1" target="XWtVXZTuNJ7dEPPLJhnu-126">
          <mxGeometry width="50" height="50" relative="1" as="geometry">
            <mxPoint x="1020" y="1060" as="sourcePoint" />
            <mxPoint x="1080" y="1060" as="targetPoint" />
          </mxGeometry>
        </mxCell>
        <mxCell id="XWtVXZTuNJ7dEPPLJhnu-126" value="&lt;div style=&quot;text-align: left;&quot;&gt;&lt;span style=&quot;background-color: initial;&quot;&gt;Add quotes (G/R) to the list&lt;/span&gt;&lt;/div&gt;" style="rounded=1;whiteSpace=wrap;html=1;" vertex="1" parent="1">
          <mxGeometry x="1080" y="1070" width="170" height="50" as="geometry" />
        </mxCell>
        <mxCell id="XWtVXZTuNJ7dEPPLJhnu-127" value="" style="endArrow=classic;html=1;rounded=0;dashed=1;exitX=1;exitY=0.75;exitDx=0;exitDy=0;entryX=0;entryY=0.25;entryDx=0;entryDy=0;" edge="1" parent="1" source="XWtVXZTuNJ7dEPPLJhnu-110" target="XWtVXZTuNJ7dEPPLJhnu-128">
          <mxGeometry width="50" height="50" relative="1" as="geometry">
            <mxPoint x="1020" y="980" as="sourcePoint" />
            <mxPoint x="1080" y="980" as="targetPoint" />
          </mxGeometry>
        </mxCell>
        <mxCell id="XWtVXZTuNJ7dEPPLJhnu-128" value="&lt;div style=&quot;text-align: left;&quot;&gt;&lt;span style=&quot;background-color: initial;&quot;&gt;Toggle Display of G / R quotes&lt;/span&gt;&lt;/div&gt;" style="rounded=1;whiteSpace=wrap;html=1;" vertex="1" parent="1">
          <mxGeometry x="1080" y="985" width="170" height="50" as="geometry" />
        </mxCell>
        <mxCell id="XWtVXZTuNJ7dEPPLJhnu-129" value="" style="endArrow=classic;html=1;rounded=0;dashed=1;entryX=0;entryY=0.75;entryDx=0;entryDy=0;exitX=1;exitY=0.25;exitDx=0;exitDy=0;" edge="1" parent="1" source="XWtVXZTuNJ7dEPPLJhnu-111" target="XWtVXZTuNJ7dEPPLJhnu-128">
          <mxGeometry width="50" height="50" relative="1" as="geometry">
            <mxPoint x="1020" y="1060" as="sourcePoint" />
            <mxPoint x="1090" y="1025" as="targetPoint" />
          </mxGeometry>
        </mxCell>
        <mxCell id="XWtVXZTuNJ7dEPPLJhnu-130" value="When clicked, it caches&lt;br&gt;&amp;nbsp;locally the databases" style="text;html=1;align=center;verticalAlign=middle;resizable=0;points=[];autosize=1;strokeColor=none;fillColor=none;fontColor=#B3B3B3;" vertex="1" parent="1">
          <mxGeometry x="870" y="910" width="150" height="40" as="geometry" />
        </mxCell>
        <mxCell id="XWtVXZTuNJ7dEPPLJhnu-131" value="Locally stored database" style="text;html=1;align=center;verticalAlign=middle;resizable=0;points=[];autosize=1;strokeColor=none;fillColor=none;fontColor=#B3B3B3;" vertex="1" parent="1">
          <mxGeometry x="865" y="1005" width="150" height="30" as="geometry" />
        </mxCell>
        <mxCell id="XWtVXZTuNJ7dEPPLJhnu-132" value="https://dbdiagram.io/d/63b3f4cc7d39e42284e89922" style="shape=cylinder3;whiteSpace=wrap;html=1;boundedLbl=1;backgroundOutline=1;size=15;fillColor=#FFFFFF;" vertex="1" parent="1">
          <mxGeometry x="1100" y="1240" width="300" height="90" as="geometry" />
        </mxCell>
        <mxCell id="XWtVXZTuNJ7dEPPLJhnu-133" value="Database" style="text;html=1;align=center;verticalAlign=middle;resizable=0;points=[];autosize=1;strokeColor=none;fillColor=none;fontColor=#B3B3B3;" vertex="1" parent="1">
          <mxGeometry x="1215" y="1240" width="70" height="30" as="geometry" />
        </mxCell>
      </root>
    </mxGraphModel>
  </diagram>
</mxfile>
